<?xml version="1.0" encoding="UTF-8" standalone="no"?>
<!-- Created with Inkscape (http://www.inkscape.org/) -->

<svg
   width="465.38904"
   height="106.98077"
   viewBox="0 0 465.38904 106.98077"
   version="1.1"
   id="SVGRoot"
   sodipodi:docname="logo.svg"
   xml:space="preserve"
   inkscape:version="1.2.1 (9c6d41e410, 2022-07-14)"
   xmlns:inkscape="http://www.inkscape.org/namespaces/inkscape"
   xmlns:sodipodi="http://sodipodi.sourceforge.net/DTD/sodipodi-0.dtd"
   xmlns="http://www.w3.org/2000/svg"
   xmlns:svg="http://www.w3.org/2000/svg"><sodipodi:namedview
     id="namedview490"
     pagecolor="#ffffff"
     bordercolor="#666666"
     borderopacity="1.0"
     inkscape:showpageshadow="2"
     inkscape:pageopacity="0.0"
     inkscape:pagecheckerboard="0"
     inkscape:deskcolor="#d1d1d1"
     inkscape:document-units="px"
     showgrid="false"
     inkscape:zoom="1.4142136"
     inkscape:cx="270.46834"
     inkscape:cy="171.11984"
     inkscape:window-width="1680"
     inkscape:window-height="985"
     inkscape:window-x="0"
     inkscape:window-y="0"
     inkscape:window-maximized="1"
     inkscape:current-layer="layer1" /><defs
     id="defs485" /><g
     inkscape:label="Layer 1"
     inkscape:groupmode="layer"
     id="layer1"><g
       id="g31705"
       transform="translate(-18.962247,-3.0537692)"><path
         id="path13960"
         style="font-weight:bold;font-size:40px;line-height:1.25;font-family:'URW Gothic';-inkscape-font-specification:'URW Gothic';white-space:pre;fill:#d52e22;stroke:#d52e22;stroke-width:1.07178;stroke-linejoin:miter;stroke-miterlimit:5;stroke-dasharray:none;stroke-opacity:1;paint-order:normal"
         class="UnoptimicedTransforms"
         d="m 29.007344,21.192206 v 9.971225 c 3.049869,-3.324468 6.099825,-6.648866 9.152036,-9.971225 z m 14.697265,0 -2.633408,5.240301 h 2.976016 v -5.240301 z m -3.111385,12.199923 c -1.602881,1.746872 -3.205363,3.494178 -4.809075,5.240301 h 7.822771 v -5.240301 z m -9.791897,0.820585 c -0.598006,0.212902 -1.196009,0.426868 -1.793983,0.639861 v 2.929266 l 5.46e-4,-0.0011 c 0.597809,-1.189344 1.195624,-2.378685 1.793437,-3.568027 z m 3.685655,5.833411 c -1.826726,1.988662 -3.652862,3.97807 -5.479638,5.966687 v 4.739297 h 5.479638 z"
         transform="matrix(2.7990699,0,0,2.7990699,-50.154521,-34.980576)"
         sodipodi:nodetypes="cccccccccccccccccccccccc" /><path
         d="M 84.780492,107.07902 H 100.1194 V 75.393549 l 21.72078,31.685471 h 18.92171 L 118.36933,76.513177 c 6.38188,-1.567479 9.51684,-3.022995 13.09965,-6.045991 5.7101,-4.8144 8.50917,-11.308242 8.50917,-19.593489 0,-8.509173 -3.02299,-15.562829 -8.7331,-20.377229 -5.37421,-4.590475 -11.30824,-6.157954 -22.61648,-6.157954 H 84.780492 Z M 100.1194,63.861381 V 39.00564 h 6.82973 c 7.16562,0 11.08431,0.78374 13.5475,2.911033 2.6871,2.127293 4.03066,5.374214 4.03066,9.404875 0,8.733098 -5.03833,12.539833 -16.90639,12.539833 z"
         style="font-weight:bold;font-size:40px;line-height:1.25;font-family:'URW Gothic';-inkscape-font-specification:'URW Gothic';white-space:pre;fill:#d52e22;stroke:#d52e22;stroke-width:2.99999;stroke-dasharray:none;stroke-opacity:1"
         id="path13962" /><path
         d="m 151.28638,107.07902 h 44.44923 V 92.41189 H 166.62528 V 73.154293 h 27.87874 V 58.487167 H 166.62528 V 39.00564 h 29.11033 V 24.338514 h -44.44923 z"
         style="font-weight:bold;font-size:40px;line-height:1.25;font-family:'URW Gothic';-inkscape-font-specification:'URW Gothic';white-space:pre;fill:#d52e22;stroke:#d52e22;stroke-width:2.99999;stroke-dasharray:none;stroke-opacity:1"
         id="path13964" /><path
         d="M 209.50709,107.07902 H 253.9563 V 92.41189 H 224.84599 V 73.154293 h 27.87872 V 58.487167 H 224.84599 V 39.00564 H 253.9563 V 24.338514 h -44.44921 z"
         style="font-weight:bold;font-size:40px;line-height:1.25;font-family:'URW Gothic';-inkscape-font-specification:'URW Gothic';white-space:pre;fill:#d52e22;stroke:#d52e22;stroke-width:2.99999;stroke-dasharray:none;stroke-opacity:1"
         id="path13966" /><path
         d="m 267.72778,107.07902 h 19.25761 c 12.53983,0 20.04134,-1.23159 26.7591,-4.59047 12.76376,-6.26992 20.26527,-19.929382 20.26527,-36.611839 0,-15.786754 -6.49384,-28.662475 -18.02601,-35.604169 -6.49384,-3.918698 -16.34657,-5.934028 -29.33425,-5.934028 H 267.72778 Z M 283.06669,92.41189 V 39.00564 h 3.02299 c 9.85273,0 15.00302,0.895703 19.81742,3.358884 7.83739,4.030661 12.65179,12.875722 12.65179,23.512187 0,9.964689 -4.59047,18.80975 -11.98002,22.840409 -4.59047,2.46318 -10.97235,3.69477 -20.1533,3.69477 z"
         style="font-weight:bold;font-size:40px;line-height:1.25;font-family:'URW Gothic';-inkscape-font-specification:'URW Gothic';white-space:pre;fill:#858999;fill-opacity:1;stroke:#858999;stroke-width:2.99999;stroke-dasharray:none;stroke-opacity:1"
         id="path13968" /><path
         d="m 346.77366,107.07902 h 44.44923 V 92.41189 H 362.11256 V 73.154293 H 389.9913 V 58.487167 H 362.11256 V 39.00564 h 29.11033 V 24.338514 h -44.44923 z"
         style="font-weight:bold;font-size:40px;line-height:1.25;font-family:'URW Gothic';-inkscape-font-specification:'URW Gothic';white-space:pre;fill:#858999;fill-opacity:1;stroke:#858999;stroke-width:2.99999;stroke-dasharray:none;stroke-opacity:1"
         id="path13970" /><path
         d="m 463.99879,84.014684 c -6.82973,7.053656 -12.53983,9.740766 -20.48919,9.740766 -15.33891,0 -27.76678,-12.763761 -27.76678,-28.214627 0,-6.717768 2.57515,-13.883387 6.82974,-18.80975 5.03832,-5.934028 12.20394,-9.068986 20.60115,-9.068986 9.6288,0 16.12264,3.134958 21.72078,10.41254 h 17.13031 c -3.24692,-7.165619 -6.15795,-11.084317 -11.75609,-15.674792 -7.61347,-6.157953 -17.35424,-9.516837 -27.43089,-9.516837 -23.40022,0 -42.54586,19.145638 -42.54586,42.545862 0,23.96004 19.36956,43.10568 43.55353,43.10568 17.01834,0 31.68547,-9.40488 38.17931,-24.519856 z"
         style="font-weight:bold;font-size:40px;line-height:1.25;font-family:'URW Gothic';-inkscape-font-specification:'URW Gothic';white-space:pre;fill:#858999;fill-opacity:1;stroke:#858999;stroke-width:2.99999;stroke-dasharray:none;stroke-opacity:1"
         id="path13972" /><path
         id="path17728"
         style="fill:#f5e000;fill-opacity:1;stroke:none;stroke-width:3;stroke-dasharray:none;stroke-opacity:1"
         d="M 77.436798,3.0537692 26.519165,63.019859 40.969987,57.233293 18.962247,105.623 69.879878,45.6569 55.429056,51.443445 Z" /></g></g></svg>
